<svg width="140" height="24" viewBox="0 0 140 24" fill="none" xmlns="http://www.w3.org/2000/svg">
<path d="M13.984 2.056C14.72 2.056 15.328 2.032 15.808 1.984V2.464C15.072 2.768 14.304 3.696 13.504 5.248L10.672 10.864V16.456C10.672 17.064 10.712 17.504 10.792 17.776C10.888 18.048 11.056 18.232 11.296 18.328C11.536 18.424 11.928 18.488 12.472 18.52V19C11.608 18.952 10.376 18.928 8.776 18.928C7.064 18.928 5.824 18.952 5.056 19V18.52C5.584 18.488 5.968 18.424 6.208 18.328C6.464 18.232 6.632 18.048 6.712 17.776C6.808 17.504 6.856 17.064 6.856 16.456V12.4L2.224 3.832C1.728 2.936 1.264 2.488 0.832 2.488V1.984C1.536 2.064 2.48 2.104 3.664 2.104C5.152 2.104 6.656 2.064 8.176 1.984V2.488C7.616 2.488 7.168 2.544 6.832 2.656C6.512 2.752 6.352 2.936 6.352 3.208C6.352 3.352 6.408 3.528 6.52 3.736L10.168 10.768L12.04 7.024C12.664 5.76 12.976 4.768 12.976 4.048C12.976 3.504 12.8 3.112 12.448 2.872C12.112 2.632 11.624 2.496 10.984 2.464V1.984C12.072 2.032 13.072 2.056 13.984 2.056ZM26.9343 16.384C26.9343 17.12 27.0463 17.656 27.2703 17.992C27.5103 18.328 27.9103 18.496 28.4703 18.496V19C27.9743 18.952 27.4783 18.928 26.9823 18.928C25.5903 18.928 24.4223 19.04 23.4783 19.264V17.104C22.7423 18.592 21.4543 19.336 19.6143 19.336C18.4143 19.336 17.5423 19.024 16.9983 18.4C16.7423 18.096 16.5503 17.704 16.4223 17.224C16.3103 16.728 16.2543 16.08 16.2543 15.28V9.208C16.2543 8.472 16.1343 7.936 15.8943 7.6C15.6703 7.264 15.2783 7.096 14.7183 7.096V6.592C15.2143 6.64 15.7103 6.664 16.2063 6.664C17.5983 6.664 18.7663 6.552 19.7103 6.328V16.264C19.7103 16.936 19.8063 17.44 19.9983 17.776C20.2063 18.112 20.5903 18.28 21.1503 18.28C21.7903 18.28 22.3343 18.016 22.7823 17.488C23.2463 16.944 23.4783 16.28 23.4783 15.496V9.208C23.4783 8.472 23.3583 7.936 23.1183 7.6C22.8943 7.264 22.5023 7.096 21.9423 7.096V6.592C22.4543 6.64 22.9503 6.664 23.4303 6.664C24.8223 6.664 25.9903 6.552 26.9343 6.328V16.384ZM48.8329 16.768C48.8329 17.424 48.9449 17.88 49.1689 18.136C49.4089 18.376 49.8089 18.496 50.3689 18.496V19C48.7689 18.936 47.7129 18.904 47.2009 18.904C46.7529 18.904 45.7609 18.936 44.2249 19V18.496C44.6569 18.496 44.9529 18.376 45.1129 18.136C45.2889 17.896 45.3769 17.44 45.3769 16.768V9.304C45.3769 8.632 45.2729 8.136 45.0649 7.816C44.8729 7.48 44.4969 7.312 43.9369 7.312C43.3449 7.312 42.8249 7.56 42.3769 8.056C41.9449 8.552 41.6889 9.16 41.6089 9.88V10.312V16.768C41.6089 17.424 41.7049 17.88 41.8969 18.136C42.1049 18.376 42.4729 18.496 43.0009 18.496V19C41.4649 18.936 40.4569 18.904 39.9769 18.904C39.5289 18.904 38.5369 18.936 37.0009 19V18.496C37.4329 18.496 37.7289 18.376 37.8889 18.136C38.0649 17.88 38.1529 17.424 38.1529 16.768V9.304C38.1529 8.632 38.0649 8.136 37.8889 7.816C37.7129 7.48 37.3689 7.312 36.8569 7.312C36.2169 7.312 35.6649 7.584 35.2009 8.128C34.7529 8.656 34.5289 9.312 34.5289 10.096V16.768C34.5289 17.424 34.6089 17.88 34.7689 18.136C34.9449 18.376 35.2489 18.496 35.6809 18.496V19C34.2729 18.936 33.3289 18.904 32.8489 18.904C32.3689 18.904 31.2649 18.936 29.5369 19V18.496C30.1129 18.496 30.5129 18.376 30.7369 18.136C30.9609 17.88 31.0729 17.424 31.0729 16.768V9.208C31.0729 8.472 30.9609 7.936 30.7369 7.6C30.5129 7.264 30.1129 7.096 29.5369 7.096V6.592C30.0489 6.64 30.5449 6.664 31.0249 6.664C32.4489 6.664 33.6169 6.552 34.5289 6.328V8.488C35.2329 7 36.4729 6.256 38.2489 6.256C39.4649 6.256 40.3449 6.568 40.8889 7.192C41.1929 7.512 41.3929 7.992 41.4889 8.632C41.9049 7.768 42.4489 7.16 43.1209 6.808C43.7929 6.44 44.5769 6.256 45.4729 6.256C46.6889 6.256 47.5689 6.568 48.1129 7.192C48.3689 7.48 48.5529 7.872 48.6649 8.368C48.7769 8.864 48.8329 9.512 48.8329 10.312V16.768ZM70.5595 16.768C70.5595 17.424 70.6715 17.88 70.8955 18.136C71.1355 18.376 71.5355 18.496 72.0955 18.496V19C70.4955 18.936 69.4395 18.904 68.9275 18.904C68.4795 18.904 67.4875 18.936 65.9515 19V18.496C66.3835 18.496 66.6795 18.376 66.8395 18.136C67.0155 17.896 67.1035 17.44 67.1035 16.768V9.304C67.1035 8.632 66.9995 8.136 66.7915 7.816C66.5995 7.48 66.2235 7.312 65.6635 7.312C65.0715 7.312 64.5515 7.56 64.1035 8.056C63.6715 8.552 63.4155 9.16 63.3355 9.88V10.312V16.768C63.3355 17.424 63.4315 17.88 63.6235 18.136C63.8315 18.376 64.1995 18.496 64.7275 18.496V19C63.1915 18.936 62.1835 18.904 61.7035 18.904C61.2555 18.904 60.2635 18.936 58.7275 19V18.496C59.1595 18.496 59.4555 18.376 59.6155 18.136C59.7915 17.88 59.8795 17.424 59.8795 16.768V9.304C59.8795 8.632 59.7915 8.136 59.6155 7.816C59.4395 7.48 59.0955 7.312 58.5835 7.312C57.9435 7.312 57.3915 7.584 56.9275 8.128C56.4795 8.656 56.2555 9.312 56.2555 10.096V16.768C56.2555 17.424 56.3355 17.88 56.4955 18.136C56.6715 18.376 56.9755 18.496 57.4075 18.496V19C55.9995 18.936 55.0555 18.904 54.5755 18.904C54.0955 18.904 52.9915 18.936 51.2635 19V18.496C51.8395 18.496 52.2395 18.376 52.4635 18.136C52.6875 17.88 52.7995 17.424 52.7995 16.768V9.208C52.7995 8.472 52.6875 7.936 52.4635 7.6C52.2395 7.264 51.8395 7.096 51.2635 7.096V6.592C51.7755 6.64 52.2715 6.664 52.7515 6.664C54.1755 6.664 55.3435 6.552 56.2555 6.328V8.488C56.9595 7 58.1995 6.256 59.9755 6.256C61.1915 6.256 62.0715 6.568 62.6155 7.192C62.9195 7.512 63.1195 7.992 63.2155 8.632C63.6315 7.768 64.1755 7.16 64.8475 6.808C65.5195 6.44 66.3035 6.256 67.1995 6.256C68.4155 6.256 69.2955 6.568 69.8395 7.192C70.0955 7.48 70.2795 7.872 70.3915 8.368C70.5035 8.864 70.5595 9.512 70.5595 10.312V16.768ZM82.6203 6.664C83.4203 6.664 84.0363 6.64 84.4683 6.592V7.072C84.1323 7.168 83.8283 7.376 83.5563 7.696C83.3003 8 83.0523 8.48 82.8123 9.136L78.5163 21.208C78.1963 22.04 77.8443 22.608 77.4603 22.912C76.9963 23.312 76.3003 23.512 75.3723 23.512C74.7003 23.512 74.0923 23.344 73.5483 23.008C73.0203 22.688 72.7563 22.216 72.7563 21.592C72.7563 21.096 72.9323 20.696 73.2843 20.392C73.6363 20.104 74.1003 19.96 74.6763 19.96C75.2203 19.96 75.6523 20.088 75.9723 20.344C76.3083 20.616 76.4763 20.992 76.4763 21.472C76.4763 21.808 76.3723 22.112 76.1643 22.384C75.9563 22.672 75.6603 22.888 75.2763 23.032C75.3883 23.048 75.5723 23.056 75.8283 23.056C76.8203 23.056 77.5483 22.424 78.0123 21.16L78.3963 20.008L73.3083 8.44C73.0523 7.896 72.8043 7.536 72.5643 7.36C72.3243 7.184 72.0762 7.096 71.8202 7.096V6.592C72.8763 6.688 73.9723 6.736 75.1083 6.736C76.0523 6.736 77.1643 6.688 78.4443 6.592V7.096C77.9323 7.096 77.5483 7.136 77.2923 7.216C77.0523 7.28 76.9323 7.464 76.9323 7.768C76.9323 7.944 76.9883 8.168 77.1003 8.44L80.0283 15.52L81.6843 10.912C81.9403 10.16 82.0683 9.52 82.0683 8.992C82.0683 7.824 81.4763 7.184 80.2923 7.072V6.592C81.0443 6.64 81.8203 6.664 82.6203 6.664Z" fill="black"/>
<path d="M98.8834 10.072C100.963 10.232 102.491 10.712 103.467 11.512C104.443 12.312 104.931 13.256 104.931 14.344C104.931 15.832 104.347 16.984 103.179 17.8C102.011 18.6 100.387 19 98.3074 19C97.8434 19 97.4514 18.992 97.1314 18.976C96.0754 18.944 95.0434 18.928 94.0354 18.928C92.3874 18.928 91.1554 18.952 90.3394 19V18.52C90.8674 18.488 91.2514 18.424 91.4914 18.328C91.7474 18.232 91.9154 18.048 91.9954 17.776C92.0914 17.504 92.1394 17.064 92.1394 16.456V4.552C92.1394 3.944 92.0914 3.504 91.9954 3.232C91.9154 2.96 91.7474 2.776 91.4914 2.68C91.2514 2.584 90.8674 2.52 90.3394 2.488V2.008C91.1554 2.056 92.3714 2.08 93.9874 2.08L96.6514 2.056C96.9714 2.04 97.3394 2.032 97.7554 2.032C99.6754 2.032 101.139 2.376 102.147 3.064C103.171 3.752 103.683 4.664 103.683 5.8C103.683 6.728 103.275 7.592 102.459 8.392C101.659 9.192 100.467 9.736 98.8834 10.024V10.072ZM97.4434 2.488C97.0114 2.488 96.6914 2.544 96.4834 2.656C96.2914 2.768 96.1554 2.968 96.0754 3.256C95.9954 3.544 95.9554 3.976 95.9554 4.552V9.976H96.9874C98.0274 9.976 98.7554 9.624 99.1714 8.92C99.5874 8.2 99.7954 7.248 99.7954 6.064C99.7954 4.864 99.6034 3.968 99.2194 3.376C98.8514 2.784 98.2594 2.488 97.4434 2.488ZM97.6114 18.448C99.8354 18.448 100.947 17.048 100.947 14.248C100.947 12.984 100.627 12.024 99.9874 11.368C99.3474 10.712 98.3394 10.384 96.9634 10.384H95.9554V16.456C95.9554 17.032 95.9954 17.456 96.0754 17.728C96.1554 18 96.3074 18.192 96.5314 18.304C96.7714 18.4 97.1314 18.448 97.6114 18.448ZM110.956 16.768C110.956 17.424 111.068 17.88 111.292 18.136C111.516 18.376 111.916 18.496 112.492 18.496V19C110.828 18.936 109.756 18.904 109.276 18.904C108.732 18.904 107.628 18.936 105.964 19V18.496C106.524 18.496 106.916 18.376 107.14 18.136C107.38 17.88 107.5 17.424 107.5 16.768V3.088C107.5 2.352 107.38 1.816 107.14 1.48C106.916 1.144 106.524 0.975999 105.964 0.975999V0.472C106.476 0.519999 106.972 0.543999 107.452 0.543999C108.844 0.543999 110.012 0.431999 110.956 0.207999V16.768ZM119.471 6.256C121.311 6.256 122.751 6.784 123.791 7.84C124.831 8.88 125.351 10.536 125.351 12.808C125.351 15.08 124.831 16.736 123.791 17.776C122.751 18.816 121.311 19.336 119.471 19.336C117.647 19.336 116.207 18.816 115.151 17.776C114.111 16.736 113.591 15.08 113.591 12.808C113.591 10.536 114.111 8.88 115.151 7.84C116.207 6.784 117.647 6.256 119.471 6.256ZM119.471 6.736C118.783 6.736 118.231 7.24 117.815 8.248C117.415 9.24 117.215 10.76 117.215 12.808C117.215 14.856 117.415 16.376 117.815 17.368C118.231 18.36 118.783 18.856 119.471 18.856C120.175 18.856 120.727 18.368 121.127 17.392C121.527 16.4 121.727 14.872 121.727 12.808C121.727 10.744 121.519 9.216 121.103 8.224C120.703 7.232 120.159 6.736 119.471 6.736ZM138.225 8.896C137.905 8.896 137.633 8.792 137.409 8.584C137.185 8.36 137.073 8.048 137.073 7.648C137.073 7.264 137.169 6.872 137.361 6.472C136.977 6.632 136.657 6.816 136.401 7.024C136.161 7.216 135.953 7.464 135.777 7.768C136.273 8.36 136.521 9.128 136.521 10.072C136.521 11.336 136.081 12.288 135.201 12.928C134.337 13.568 133.185 13.888 131.745 13.888H131.313C130.657 14.272 130.329 14.696 130.329 15.16C130.329 15.672 130.649 15.928 131.289 15.928H133.905C135.313 15.928 136.433 16.192 137.265 16.72C138.113 17.232 138.537 18.024 138.537 19.096C138.537 19.912 138.273 20.648 137.745 21.304C137.233 21.976 136.449 22.512 135.393 22.912C134.337 23.312 133.041 23.512 131.505 23.512C129.953 23.512 128.705 23.312 127.761 22.912C126.833 22.528 126.369 21.968 126.369 21.232C126.369 20.736 126.593 20.288 127.041 19.888C127.489 19.504 128.153 19.2 129.033 18.976L129.249 19.36C128.673 19.84 128.385 20.392 128.385 21.016C128.385 21.688 128.689 22.2 129.297 22.552C129.905 22.92 130.745 23.104 131.817 23.104C132.937 23.104 133.841 22.88 134.529 22.432C135.233 21.984 135.585 21.352 135.585 20.536C135.585 20.008 135.385 19.592 134.985 19.288C134.601 18.984 133.921 18.832 132.945 18.832H131.457C130.433 18.832 129.633 18.664 129.057 18.328C128.481 17.976 128.193 17.448 128.193 16.744C128.193 16.152 128.401 15.624 128.817 15.16C129.233 14.696 129.865 14.248 130.713 13.816C129.561 13.672 128.649 13.288 127.977 12.664C127.305 12.04 126.969 11.176 126.969 10.072C126.969 8.808 127.401 7.856 128.265 7.216C129.145 6.576 130.305 6.256 131.745 6.256C133.345 6.256 134.569 6.632 135.417 7.384C135.721 6.952 136.097 6.608 136.545 6.352C136.993 6.096 137.449 5.968 137.913 5.968C138.393 5.968 138.769 6.112 139.041 6.4C139.329 6.672 139.473 7.032 139.473 7.48C139.473 7.928 139.345 8.28 139.089 8.536C138.849 8.776 138.561 8.896 138.225 8.896ZM131.745 13.456C132.193 13.456 132.529 13.2 132.753 12.688C132.993 12.176 133.113 11.304 133.113 10.072C133.113 8.84 132.993 7.968 132.753 7.456C132.529 6.944 132.193 6.688 131.745 6.688C131.297 6.688 130.953 6.944 130.713 7.456C130.489 7.968 130.377 8.84 130.377 10.072C130.377 11.304 130.489 12.176 130.713 12.688C130.953 13.2 131.297 13.456 131.745 13.456Z" fill="#3C7D36"/>
</svg>
